<?xml version="1.0" standalone="no"?>
<!DOCTYPE svg PUBLIC "-//W3C//DTD SVG 20010904//EN" "http://www.w3.org/TR/2001/REC-SVG-20010904/DTD/svg10.dtd">
<svg version="1.0" xmlns="http://www.w3.org/2000/svg" width="450.000000pt" height="202.000000pt" viewBox="0 0 450.000000 202.000000" preserveAspectRatio="xMidYMid meet">
    <metadata>
        Logo By Movo+
    </metadata>
    <g transform="translate(0.000000,202.000000) scale(0.100000,-0.100000)" fill="#000000" stroke="none">
        <path d="M284 1751 c-2 -2 -4 -337 -4 -743 l0 -738 250 0 250 0 -2 445 c-2 331 0 441 8 432 7 -7 24 -34 38 -60 15 -27 70 -124 123 -215 53 -92 113 -196 133 -232 20 -36 75 -132 122 -215 l85 -150 201 -3 201 -2 36 55 c19 30 35 57 35 58 0 4 93 166 195 342 82 141 123 210 164 282 20 35 61 106 91 158 l55 95 227 0 228 0 -2 246 -3 247 -360 -1 c-198 0 -362 -1 -365 -1 -3 -1 -18 -25 -34 -53 -15 -29 -42 -78 -60 -108 -36 -62 -187 -321 -313 -539 -46 -79 -85 -146 -87 -148 -2 -2 -25 33 -51 79 -109 190 -130 225 -155 268 -24 40 -63 108 -142 250 -14 25 -41 72 -60 105 -20 33 -47 80 -61 104 l-26 45 -356 0 c-196 1 -359 -1 -361 -3z" />
        <path d="M3240 1510 l0 -250 245 0 245 0 0 -245 0 -245 -245 0 -245 0 0 -250 0 -250 245 0 245 0 2 248 3 247 247 0 248 0 0 252 0 253 -247 2 -248 3 -3 243 -2 242 -245 0 -245 0 0 -250z" />
        <path d="M2210 520 l0 -250 255 0 255 0 0 250 0 250 -255 0 -255 0 0 -250z" />
    </g>
</svg>